<svg xmlns="http://www.w3.org/2000/svg" xmlns:xlink="http://www.w3.org/1999/xlink" width="100" height="100" viewBox="0 0 100 100"><rect width="100%" height="100%" fill="#FFFFFF"></rect><g transform="translate(50 50) scale(0.69 0.69) rotate(0) translate(-50 -50)" style="fill:#8500CC"><svg fill="#8500CC" xmlns:x="http://ns.adobe.com/Extensibility/1.0/" xmlns:i="http://ns.adobe.com/AdobeIllustrator/10.0/" xmlns:graph="http://ns.adobe.com/Graphs/1.0/" xmlns="http://www.w3.org/2000/svg" xmlns:xlink="http://www.w3.org/1999/xlink" version="1.1" x="0px" y="0px" viewBox="0 0 100 100" style="enable-background:new 0 0 100 100;" xml:space="preserve"><g><g i:extraneous="self"><g><path d="M5273.1,2400.1v-2c0-2.8-5-4-9.7-4s-9.7,1.3-9.7,4v2c0,1.8,0.7,3.6,2,4.9l5,4.9c0.3,0.3,0.4,0.6,0.4,1v6.4     c0,0.4,0.2,0.7,0.6,0.8l2.9,0.9c0.5,0.1,1-0.2,1-0.8v-7.2c0-0.4,0.2-0.7,0.4-1l5.1-5C5272.4,2403.7,5273.1,2401.9,5273.1,2400.1z      M5263.4,2400c-4.8,0-7.4-1.3-7.5-1.8v0c0.1-0.5,2.7-1.8,7.5-1.8c4.8,0,7.3,1.3,7.5,1.8C5270.7,2398.7,5268.2,2400,5263.4,2400z"></path><path d="M5268.4,2410.3c-0.6,0-1,0.4-1,1c0,0.6,0.4,1,1,1h4.3c0.6,0,1-0.4,1-1c0-0.6-0.4-1-1-1H5268.4z"></path><path d="M5272.7,2413.7h-4.3c-0.6,0-1,0.4-1,1c0,0.6,0.4,1,1,1h4.3c0.6,0,1-0.4,1-1C5273.7,2414.1,5273.3,2413.7,5272.7,2413.7z"></path><path d="M5272.7,2417h-4.3c-0.6,0-1,0.4-1,1c0,0.6,0.4,1,1,1h4.3c0.6,0,1-0.4,1-1C5273.7,2417.5,5273.3,2417,5272.7,2417z"></path></g><path d="M84.6,2.5H15.4c-6.1,0-11,4.9-11,11V64c0,6.1,4.9,11,11,11h10.3v18.4c0,3.6,4.3,5.4,6.9,2.9L54.8,75h29.8    c6.1,0,11-4.9,11-11V13.5C95.6,7.4,90.7,2.5,84.6,2.5z M31.7,54c-1.4,0.7-2.4-1-2.6-1.4c-0.6-1.2-0.6-2.2-0.3-2.4    c2.8-1.6,6.5-4.1,7.8-6.6l0.8-1.5l-1.7-0.2c-4.9-0.4-8.6-4.5-8.6-9.3c0-5.2,4.2-9.4,9.4-9.4s9.4,4.2,9.4,9.4    C46,44.3,38.2,50.7,31.7,54z M58.5,54c-1.4,0.7-2.4-1-2.6-1.4c-0.6-1.2-0.6-2.2-0.3-2.4c2.8-1.6,6.5-4.1,7.8-6.6l0.8-1.5l-1.7-0.2    c-4.9-0.4-8.6-4.5-8.6-9.3c0-5.2,4.2-9.4,9.4-9.4s9.4,4.2,9.4,9.4C72.8,44.3,65,50.7,58.5,54z"></path></g></g></svg></g></svg>